<?xml version="1.0" encoding="UTF-8" standalone="no"?>
<svg
   xmlns:dc="http://purl.org/dc/elements/1.1/"
   xmlns:cc="http://creativecommons.org/ns#"
   xmlns:rdf="http://www.w3.org/1999/02/22-rdf-syntax-ns#"
   xmlns:svg="http://www.w3.org/2000/svg"
   xmlns="http://www.w3.org/2000/svg"
   version="1.1"
   id="svg4221"
   height="20"
   width="225">
  <metadata
     id="metadata4250">
    <rdf:RDF>
      <cc:Work
         rdf:about="">
        <dc:format>image/svg+xml</dc:format>
        <dc:type
           rdf:resource="http://purl.org/dc/dcmitype/StillImage" />
        <dc:title></dc:title>
      </cc:Work>
    </rdf:RDF>
  </metadata>
  <defs
     id="defs4248" />
  <linearGradient
     y2="1"
     x2="0"
     id="a">
    <stop
       id="stop4224"
       stop-opacity=".1"
       stop-color="#bbb"
       offset="0" />
    <stop
       id="stop4226"
       stop-opacity=".1"
       offset="1" />
  </linearGradient>
  <rect
     id="rect4573"
     height="20"
     width="156"
     rx="3"
     x="0"
     y="-1.0070801e-07"
     style="fill:#555555" />
  <rect
     id="rect4575"
     height="20"
     width="139.0598"
     x="86"
     rx="2.770083"
     y="-1.0070801e-07"
     style="fill:#6672d8;fill-opacity:1" />
  <path
     id="path4577"
     d="m 86,0 4,0 0,20 -4,0 z"
     style="fill:#6672d8;fill-opacity:1" />
  <rect
     style="fill:url(#a-2)"
     id="rect4579"
     height="20"
     width="156"
     rx="3"
     x="0"
     y="-1.0070801e-07" />
  <g
     id="text4608"
     style="font-style:normal;font-weight:normal;font-size:57.22187042px;line-height:1000%;font-family:sans-serif;letter-spacing:0px;word-spacing:0px;fill:#000000;fill-opacity:1;stroke:none;stroke-width:1px;stroke-linecap:butt;stroke-linejoin:miter;stroke-opacity:1">
    <path
       id="path4678"
       style="font-style:normal;font-variant:normal;font-weight:normal;font-stretch:normal;font-size:10.72910023px;font-family:'DejaVu Sans';-inkscape-font-specification:'DejaVu Sans';fill:#ffffff"
       d="m 11.081964,6.125895 q 0.796301,0 1.482586,0.2881351 0.691524,0.288135 1.262555,0.8591662 0.571032,0.5710312 0.853928,1.2573164 0.282896,0.6862852 0.282896,1.4930633 0,0.7963 -0.282896,1.482586 -0.282896,0.681046 -0.853928,1.252077 -0.571031,0.571031 -1.262555,0.859166 -0.686285,0.288135 -1.482586,0.288135 -0.7963,0 -1.487824,-0.288135 Q 8.9078548,13.32927 8.3368236,12.758239 7.7657924,12.187208 7.4828962,11.506162 7.2,10.819876 7.2,10.023576 7.2,9.2167979 7.4828962,8.5305127 7.7657924,7.8442275 8.3368236,7.2731963 8.9078548,6.7021651 9.59414,6.4140301 10.285664,6.125895 11.081964,6.125895 Z m 0,0.5395983 q -0.686285,0 -1.2782712,0.2462245 Q 9.2117063,7.1579423 8.7192574,7.6503912 8.2268084,8.1428401 7.9753451,8.7453043 7.7238819,9.3425296 7.7238819,10.023576 q 0,0.675808 0.2514632,1.273033 0.2514633,0.591986 0.7439123,1.084435 0.4924489,0.492449 1.0844354,0.743913 0.5919862,0.246224 1.2782712,0.246224 0.691525,0 1.283511,-0.246224 0.597225,-0.251464 1.089674,-0.743913 0.48721,-0.48721 0.728196,-1.079196 0.246224,-0.591987 0.246224,-1.278272 0,-0.6967629 -0.246224,-1.2887494 Q 13.937121,8.1376013 13.455149,7.6503912 12.9627,7.1579423 12.365475,6.9117178 11.773489,6.6654933 11.081964,6.6654933 Z m 1.566407,1.2835106 0,0.6758075 q -0.345762,-0.172881 -0.686285,-0.2567021 -0.340523,-0.083821 -0.686285,-0.083821 -0.780584,0 -1.220645,0.4610161 -0.4348219,0.4557772 -0.4348219,1.2782717 0,0.832972 0.4452999,1.288749 0.450538,0.455778 1.262555,0.455778 0.335284,0 0.654852,-0.07858 0.319568,-0.08382 0.66533,-0.261941 l 0,0.66533 q -0.351001,0.151926 -0.712479,0.225269 -0.35624,0.07334 -0.722957,0.07334 -1.131585,0 -1.791676,-0.639136 -0.6548523,-0.639136 -0.6548523,-1.72881 0,-1.0949131 0.6548523,-1.7288101 0.660091,-0.6338971 1.791676,-0.6338971 0.382434,0 0.738673,0.073344 0.35624,0.073344 0.696763,0.2147916 z" />
    <path
       id="path4680"
       style="font-style:normal;font-variant:normal;font-weight:normal;font-stretch:normal;font-size:10.72910023px;font-family:'DejaVu Sans';-inkscape-font-specification:'DejaVu Sans';fill:#ffffff"
       d="m 21.92108,13.014941 3.693367,0 0,0.890599 -4.9664,0 0,-0.890599 q 0.602464,-0.623419 1.63975,-1.671183 1.042525,-1.053002 1.309705,-1.3568537 0.508165,-0.5710313 0.70724,-0.9639426 0.204314,-0.3981503 0.204314,-0.780584 0,-0.6234194 -0.440061,-1.0163308 -0.434822,-0.3929114 -1.136823,-0.3929114 -0.497688,0 -1.053003,0.172881 -0.550076,0.1728811 -1.178734,0.5238819 l 0,-1.068719 q 0.639136,-0.2567021 1.194451,-0.3876725 0.555314,-0.1309705 1.01633,-0.1309705 1.215406,0 1.938363,0.6077029 0.722957,0.607703 0.722957,1.6240338 0,0.4819713 -0.183358,0.9167932 -0.17812,0.4295831 -0.654853,1.0163307 -0.13097,0.151926 -0.832972,0.880122 -0.702002,0.722957 -1.980273,2.027422 z" />
    <path
       id="path4682"
       style="font-style:normal;font-variant:normal;font-weight:normal;font-stretch:normal;font-size:10.72910023px;font-family:'DejaVu Sans';-inkscape-font-specification:'DejaVu Sans';fill:#ffffff"
       d="m 30.104114,6.7807473 q -0.817256,0 -1.231122,0.8067781 -0.408628,0.8015392 -0.408628,2.4150956 0,1.608317 0.408628,2.415095 0.413866,0.801539 1.231122,0.801539 0.822494,0 1.231122,-0.801539 0.413867,-0.806778 0.413867,-2.415095 0,-1.6135564 -0.413867,-2.4150956 -0.408628,-0.8067781 -1.231122,-0.8067781 z m 0,-0.8382109 q 1.314943,0 2.006467,1.0425249 0.696763,1.037286 0.696763,3.0175597 0,1.975034 -0.696763,3.017559 -0.691524,1.037286 -2.006467,1.037286 -1.314944,0 -2.011706,-1.037286 -0.691524,-1.042525 -0.691524,-3.017559 0,-1.9802737 0.691524,-3.0175597 0.696762,-1.0425249 2.011706,-1.0425249 z" />
    <path
       id="path4684"
       style="font-style:normal;font-variant:normal;font-weight:normal;font-stretch:normal;font-size:10.72910023px;font-family:'DejaVu Sans';-inkscape-font-specification:'DejaVu Sans';fill:#ffffff"
       d="m 34.855724,13.014941 1.72881,0 0,-5.9670139 -1.880736,0.3771949 0,-0.9639426 1.870258,-0.3771949 1.058242,0 0,6.9309565 1.72881,0 0,0.890599 -4.505384,0 0,-0.890599 z" />
    <path
       id="path4686"
       style="font-style:normal;font-variant:normal;font-weight:normal;font-stretch:normal;font-size:10.72910023px;font-family:'DejaVu Sans';-inkscape-font-specification:'DejaVu Sans';fill:#ffffff"
       d="m 44.411328,7.0060165 -2.671797,4.1753385 2.671797,0 0,-4.1753385 z m -0.277657,-0.922032 1.33066,0 0,5.0973705 1.115868,0 0,0.880121 -1.115868,0 0,1.844064 -1.053003,0 0,-1.844064 -3.530963,0 0,-1.021569 3.253306,-4.9559225 z" />
    <path
       id="path4688"
       style="font-style:normal;font-variant:normal;font-weight:normal;font-stretch:normal;font-size:10.72910023px;font-family:'DejaVu Sans';-inkscape-font-specification:'DejaVu Sans';fill:#ffffff"
       d="m 47.711786,10.53698 2.823723,0 0,0.859166 -2.823723,0 0,-0.859166 z" />
    <path
       id="path4690"
       style="font-style:normal;font-variant:normal;font-weight:normal;font-stretch:normal;font-size:10.72910023px;font-family:'DejaVu Sans';-inkscape-font-specification:'DejaVu Sans';fill:#ffffff"
       d="m 53.123484,13.014941 3.693367,0 0,0.890599 -4.9664,0 0,-0.890599 q 0.602464,-0.623419 1.63975,-1.671183 1.042525,-1.053002 1.309705,-1.3568537 0.508165,-0.5710313 0.70724,-0.9639426 0.204314,-0.3981503 0.204314,-0.780584 0,-0.6234194 -0.440061,-1.0163308 -0.434822,-0.3929114 -1.136823,-0.3929114 -0.497688,0 -1.053003,0.172881 -0.550076,0.1728811 -1.178734,0.5238819 l 0,-1.068719 q 0.639136,-0.2567021 1.194451,-0.3876725 0.555314,-0.1309705 1.01633,-0.1309705 1.215406,0 1.938363,0.6077029 0.722957,0.607703 0.722957,1.6240338 0,0.4819713 -0.183358,0.9167932 -0.17812,0.4295831 -0.654853,1.0163307 -0.13097,0.151926 -0.832972,0.880122 -0.702002,0.722957 -1.980273,2.027422 z" />
    <path
       id="path4692"
       style="font-style:normal;font-variant:normal;font-weight:normal;font-stretch:normal;font-size:10.72910023px;font-family:'DejaVu Sans';-inkscape-font-specification:'DejaVu Sans';fill:#ffffff"
       d="m 61.30652,6.7807473 q -0.817256,0 -1.231122,0.8067781 -0.408628,0.8015392 -0.408628,2.4150956 0,1.608317 0.408628,2.415095 0.413866,0.801539 1.231122,0.801539 0.822494,0 1.231122,-0.801539 0.413867,-0.806778 0.413867,-2.415095 0,-1.6135564 -0.413867,-2.4150956 Q 62.129014,6.7807473 61.30652,6.7807473 Z m 0,-0.8382109 q 1.314943,0 2.006467,1.0425249 0.696763,1.037286 0.696763,3.0175597 0,1.975034 -0.696763,3.017559 -0.691524,1.037286 -2.006467,1.037286 -1.314944,0 -2.011706,-1.037286 -0.691524,-1.042525 -0.691524,-3.017559 0,-1.9802737 0.691524,-3.0175597 0.696762,-1.0425249 2.011706,-1.0425249 z" />
    <path
       id="path4694"
       style="font-style:normal;font-variant:normal;font-weight:normal;font-stretch:normal;font-size:10.72910023px;font-family:'DejaVu Sans';-inkscape-font-specification:'DejaVu Sans';fill:#ffffff"
       d="m 66.058126,13.014941 1.72881,0 0,-5.9670139 -1.880736,0.3771949 0,-0.9639426 1.870258,-0.3771949 1.058242,0 0,6.9309565 1.72881,0 0,0.890599 -4.505384,0 0,-0.890599 z" />
    <path
       id="path4696"
       style="font-style:normal;font-variant:normal;font-weight:normal;font-stretch:normal;font-size:10.72910023px;font-family:'DejaVu Sans';-inkscape-font-specification:'DejaVu Sans';fill:#ffffff"
       d="m 75.100324,9.5730376 q -0.712479,0 -1.131584,0.4872104 -0.413867,0.48721 -0.413867,1.335898 0,0.84345 0.413867,1.335899 0.419105,0.48721 1.131584,0.48721 0.71248,0 1.126346,-0.48721 0.419106,-0.492449 0.419106,-1.335899 0,-0.848688 -0.419106,-1.335898 -0.413866,-0.4872104 -1.126346,-0.4872104 z m 2.100767,-3.3161721 0,0.9639426 q -0.398151,-0.1885975 -0.806778,-0.288135 -0.403389,-0.099538 -0.80154,-0.099538 -1.047763,0 -1.603078,0.7072405 -0.550076,0.7072405 -0.628658,2.137438 0.30909,-0.4557772 0.775345,-0.6967629 0.466255,-0.2462245 1.026808,-0.2462245 1.178734,0 1.859781,0.7177182 0.686285,0.7124792 0.686285,1.9436012 0,1.204929 -0.712479,1.933124 -0.71248,0.728196 -1.896453,0.728196 -1.356854,0 -2.074572,-1.037286 -0.717718,-1.042525 -0.717718,-3.017559 0,-1.854542 0.880122,-2.9546939 0.880121,-1.1053907 2.362707,-1.1053907 0.39815,0 0.801539,0.078582 0.408628,0.078582 0.848689,0.2357468 z" />
  </g>
  <g
     id="text4608-6"
     style="font-style:normal;font-weight:normal;font-size:57.22187042px;line-height:1000%;font-family:sans-serif;letter-spacing:0px;word-spacing:0px;fill:#000000;fill-opacity:1;stroke:none;stroke-width:1px;stroke-linecap:butt;stroke-linejoin:miter;stroke-opacity:1">
    <path
       id="path4699"
       style="font-style:normal;font-variant:normal;font-weight:normal;font-stretch:normal;font-size:10.72910023px;font-family:'DejaVu Sans';-inkscape-font-specification:'DejaVu Sans';fill:#ffffff"
       d="m 93.500001,5.1383764 1.058241,0 0,6.9309566 3.808621,0 0,0.890599 -4.866862,0 0,-7.8215556 z" />
    <path
       id="path4701"
       style="font-style:normal;font-variant:normal;font-weight:normal;font-stretch:normal;font-size:10.72910023px;font-family:'DejaVu Sans';-inkscape-font-specification:'DejaVu Sans';fill:#ffffff"
       d="m 99.430343,7.0924556 0.963947,0 0,5.8674764 -0.963947,0 0,-5.8674764 z m 0,-2.2841248 0.963947,0 0,1.2206447 -0.963947,0 0,-1.2206447 z" />
    <path
       id="path4703"
       style="font-style:normal;font-variant:normal;font-weight:normal;font-stretch:normal;font-size:10.72910023px;font-family:'DejaVu Sans';-inkscape-font-specification:'DejaVu Sans';fill:#ffffff"
       d="m 106.618,10.031433 q 0,-1.0634803 -0.44006,-1.6659445 -0.43482,-0.6077029 -1.19969,-0.6077029 -0.76487,0 -1.20493,0.6077029 -0.43482,0.6024642 -0.43482,1.6659445 0,1.06348 0.43482,1.671183 0.44006,0.602464 1.20493,0.602464 0.76487,0 1.19969,-0.602464 0.44006,-0.607703 0.44006,-1.671183 z m -3.2795,-2.0483782 q 0.30385,-0.5238819 0.76487,-0.7753452 0.46625,-0.2567021 1.11063,-0.2567021 1.06872,0 1.73405,0.8486886 0.67057,0.8486886 0.67057,2.2317369 0,1.383048 -0.67057,2.231736 -0.66533,0.848689 -1.73405,0.848689 -0.64438,0 -1.11063,-0.251463 -0.46102,-0.256702 -0.76487,-0.780584 l 0,0.880121 -0.96918,0 0,-8.1516012 0.96918,0 0,3.174724 z" />
    <path
       id="path4705"
       style="font-style:normal;font-variant:normal;font-weight:normal;font-stretch:normal;font-size:10.72910023px;font-family:'DejaVu Sans';-inkscape-font-specification:'DejaVu Sans';fill:#ffffff"
       d="m 112.61645,7.9935324 q -0.1624,-0.094299 -0.35624,-0.1362093 -0.1886,-0.047149 -0.41911,-0.047149 -0.81725,0 -1.25731,0.5343595 -0.43482,0.5291206 -0.43482,1.5244961 l 0,3.0909026 -0.96919,0 0,-5.8674764 0.96919,0 0,0.9115545 q 0.30385,-0.5343595 0.79106,-0.7910616 0.48721,-0.261941 1.18397,-0.261941 0.0995,0 0.22003,0.015716 0.12049,0.010478 0.26718,0.036672 l 0.005,0.9901367 z" />
    <path
       id="path4707"
       style="font-style:normal;font-variant:normal;font-weight:normal;font-stretch:normal;font-size:10.72910023px;font-family:'DejaVu Sans';-inkscape-font-specification:'DejaVu Sans';fill:#ffffff"
       d="m 118.4263,9.7852083 0,0.4714937 -4.43204,0 q 0.0629,0.995376 0.59722,1.519257 0.5396,0.518643 1.49831,0.518643 0.55531,0 1.07395,-0.136209 0.52389,-0.136209 1.03729,-0.408628 l 0,0.911555 q -0.51864,0.22003 -1.06348,0.335284 -0.54484,0.115254 -1.10539,0.115254 -1.404,0 -2.2265,-0.817256 -0.81725,-0.817255 -0.81725,-2.210781 0,-1.4406751 0.77534,-2.2841249 0.78059,-0.8486886 2.10077,-0.8486886 1.18397,0 1.87026,0.7648675 0.69152,0.7596287 0.69152,2.0693333 z m -0.96394,-0.2828962 q -0.0105,-0.7910616 -0.4453,-1.2625552 -0.42959,-0.4714937 -1.14207,-0.4714937 -0.80677,0 -1.29398,0.4557772 -0.48197,0.4557772 -0.55532,1.2835106 l 3.43667,-0.00524 z" />
    <path
       id="path4709"
       style="font-style:normal;font-variant:normal;font-weight:normal;font-stretch:normal;font-size:10.72910023px;font-family:'DejaVu Sans';-inkscape-font-specification:'DejaVu Sans';fill:#ffffff"
       d="m 128.15479,5.3950785 0,1.0320472 q -0.60247,-0.288135 -1.13683,-0.4295831 -0.53436,-0.1414481 -1.03205,-0.1414481 -0.8644,0 -1.33589,0.3352844 -0.46626,0.3352843 -0.46626,0.9534649 0,0.5186431 0.30909,0.7858228 0.31433,0.2619409 1.18397,0.4243443 l 0.63914,0.1309705 q 1.18397,0.2252691 1.74453,0.7963004 0.56579,0.5657924 0.56579,1.5192572 0,1.136824 -0.76487,1.723571 -0.75963,0.586748 -2.23174,0.586748 -0.55531,0 -1.18397,-0.125732 -0.62342,-0.125731 -1.29399,-0.371956 l 0,-1.089674 q 0.64438,0.361479 1.26256,0.544837 0.61818,0.183359 1.2154,0.183359 0.90632,0 1.39877,-0.35624 0.49245,-0.356239 0.49245,-1.016331 0,-0.57627 -0.35624,-0.9010764 -0.351,-0.3248067 -1.15778,-0.4872101 l -0.64438,-0.1257316 q -1.18397,-0.2357469 -1.71309,-0.7386734 -0.52912,-0.5029266 -0.52912,-1.3987646 0,-1.037286 0.7282,-1.6345113 0.73343,-0.5972253 2.01694,-0.5972253 0.55008,0 1.12111,0.099537 0.57103,0.099538 1.16826,0.2986127 z" />
    <path
       id="path4711"
       style="font-style:normal;font-variant:normal;font-weight:normal;font-stretch:normal;font-size:10.72910023px;font-family:'DejaVu Sans';-inkscape-font-specification:'DejaVu Sans';fill:#ffffff"
       d="m 131.1671,12.079811 0,3.111858 -0.96918,0 0,-8.0992134 0.96918,0 0,0.8905992 q 0.30386,-0.5238819 0.76487,-0.7753452 0.46626,-0.2567021 1.11063,-0.2567021 1.06872,0 1.73405,0.8486886 0.67057,0.8486886 0.67057,2.2317369 0,1.383048 -0.67057,2.231736 -0.66533,0.848689 -1.73405,0.848689 -0.64437,0 -1.11063,-0.251463 -0.46101,-0.256702 -0.76487,-0.780584 z m 3.27951,-2.048378 q 0,-1.0634803 -0.44007,-1.6659445 -0.43482,-0.6077029 -1.19969,-0.6077029 -0.76486,0 -1.20492,0.6077029 -0.43483,0.6024642 -0.43483,1.6659445 0,1.06348 0.43483,1.671183 0.44006,0.602464 1.20492,0.602464 0.76487,0 1.19969,-0.602464 0.44007,-0.607703 0.44007,-1.671183 z" />
    <path
       id="path4713"
       style="font-style:normal;font-variant:normal;font-weight:normal;font-stretch:normal;font-size:10.72910023px;font-family:'DejaVu Sans';-inkscape-font-specification:'DejaVu Sans';fill:#ffffff"
       d="m 139.71162,10.010478 q -1.16826,0 -1.6188,0.267179 -0.45054,0.26718 -0.45054,0.911555 0,0.513404 0.33529,0.817255 0.34052,0.298613 0.92203,0.298613 0.80154,0 1.28351,-0.565792 0.48721,-0.571032 0.48721,-1.514019 l 0,-0.214791 -0.9587,0 z m 1.92264,-0.3981507 0,3.3476047 -0.96394,0 0,-0.890599 q -0.33005,0.53436 -0.82249,0.791062 -0.49245,0.251463 -1.20493,0.251463 -0.90108,0 -1.43544,-0.502927 -0.52912,-0.508165 -0.52912,-1.356853 0,-0.990137 0.66009,-1.4930638 0.66533,-0.5029265 1.98028,-0.5029265 l 1.35161,0 0,-0.094299 q 0,-0.6653299 -0.44006,-1.0268084 -0.43482,-0.3667173 -1.22588,-0.3667173 -0.50293,0 -0.97966,0.1204928 -0.47674,0.1204929 -0.9168,0.3614785 l 0,-0.8905991 q 0.52912,-0.2043139 1.02681,-0.3038515 0.49769,-0.1047764 0.96918,-0.1047764 1.27304,0 1.90169,0.6600912 0.62866,0.6600911 0.62866,2.0012286 z" />
    <path
       id="path4715"
       style="font-style:normal;font-variant:normal;font-weight:normal;font-stretch:normal;font-size:10.72910023px;font-family:'DejaVu Sans';-inkscape-font-specification:'DejaVu Sans';fill:#ffffff"
       d="m 147.8475,7.3177248 0,0.9010768 q -0.40863,-0.2252692 -0.82249,-0.3352844 -0.40863,-0.115254 -0.82774,-0.115254 -0.93774,0 -1.45639,0.5972253 -0.51864,0.5919865 -0.51864,1.6659445 0,1.073958 0.51864,1.671183 0.51865,0.591986 1.45639,0.591986 0.41911,0 0.82774,-0.110015 0.41386,-0.115254 0.82249,-0.340523 l 0,0.890599 q -0.40339,0.188598 -0.83821,0.282896 -0.42958,0.0943 -0.91679,0.0943 -1.32542,0 -2.10601,-0.832972 -0.78058,-0.832972 -0.78058,-2.247453 0,-1.4354365 0.78582,-2.257931 0.79106,-0.8224945 2.16363,-0.8224945 0.4453,0 0.86965,0.094299 0.42434,0.08906 0.82249,0.2724185 z" />
    <path
       id="path4717"
       style="font-style:normal;font-variant:normal;font-weight:normal;font-stretch:normal;font-size:10.72910023px;font-family:'DejaVu Sans';-inkscape-font-specification:'DejaVu Sans';fill:#ffffff"
       d="m 154.55319,9.7852083 0,0.4714937 -4.43204,0 q 0.0629,0.995376 0.59723,1.519257 0.53959,0.518643 1.4983,0.518643 0.55531,0 1.07396,-0.136209 0.52388,-0.136209 1.03728,-0.408628 l 0,0.911555 q -0.51864,0.22003 -1.06348,0.335284 -0.54483,0.115254 -1.10539,0.115254 -1.404,0 -2.2265,-0.817256 -0.81725,-0.817255 -0.81725,-2.210781 0,-1.4406751 0.77534,-2.2841249 0.78059,-0.8486886 2.10077,-0.8486886 1.18397,0 1.87026,0.7648675 0.69152,0.7596287 0.69152,2.0693333 z m -0.96394,-0.2828962 q -0.0105,-0.7910616 -0.4453,-1.2625552 -0.42958,-0.4714937 -1.14206,-0.4714937 -0.80678,0 -1.29399,0.4557772 -0.48197,0.4557772 -0.55532,1.2835106 l 3.43667,-0.00524 z" />
    <path
       id="path4719"
       style="font-style:normal;font-variant:normal;font-weight:normal;font-stretch:normal;font-size:10.72910023px;font-family:'DejaVu Sans';-inkscape-font-specification:'DejaVu Sans';fill:#ffffff"
       d="m 159.59293,5.1383764 4.49491,0 0,0.8905991 -3.43666,0 0,2.3050801 3.10138,0 0,0.8905992 -3.10138,0 0,3.7352772 -1.05825,0 0,-7.8215556 z" />
    <path
       id="path4721"
       style="font-style:normal;font-variant:normal;font-weight:normal;font-stretch:normal;font-size:10.72910023px;font-family:'DejaVu Sans';-inkscape-font-specification:'DejaVu Sans';fill:#ffffff"
       d="m 167.62928,7.7682632 q -0.77534,0 -1.22588,0.607703 -0.45054,0.6024641 -0.45054,1.6554668 0,1.053002 0.4453,1.660705 0.45054,0.602464 1.23112,0.602464 0.77011,0 1.22065,-0.607703 0.45054,-0.607703 0.45054,-1.655466 0,-1.0425251 -0.45054,-1.650228 -0.45054,-0.6129418 -1.22065,-0.6129418 z m 0,-0.8172557 q 1.25732,0 1.97504,0.8172557 0.71772,0.8172557 0.71772,2.2631698 0,1.440675 -0.71772,2.263169 -0.71772,0.817256 -1.97504,0.817256 -1.26255,0 -1.98027,-0.817256 -0.71248,-0.822494 -0.71248,-2.263169 0,-1.4459141 0.71248,-2.2631698 0.71772,-0.8172557 1.98027,-0.8172557 z" />
    <path
       id="path4723"
       style="font-style:normal;font-variant:normal;font-weight:normal;font-stretch:normal;font-size:10.72910023px;font-family:'DejaVu Sans';-inkscape-font-specification:'DejaVu Sans';fill:#ffffff"
       d="m 171.8151,10.644375 0,-3.5519194 0.96394,0 0,3.5152474 q 0,0.832972 0.32481,1.252077 0.3248,0.413867 0.97442,0.413867 0.78058,0 1.23112,-0.497688 0.45578,-0.497687 0.45578,-1.356854 l 0,-3.3266494 0.96394,0 0,5.8674764 -0.96394,0 0,-0.901076 q -0.35101,0.534359 -0.81726,0.7963 -0.46102,0.256702 -1.07396,0.256702 -1.01109,0 -1.53497,-0.628658 -0.52388,-0.628658 -0.52388,-1.838825 z m 2.42557,-3.6933675 0,0 z" />
    <path
       id="path4725"
       style="font-style:normal;font-variant:normal;font-weight:normal;font-stretch:normal;font-size:10.72910023px;font-family:'DejaVu Sans';-inkscape-font-specification:'DejaVu Sans';fill:#ffffff"
       d="m 183.60244,9.418491 0,3.541441 -0.96395,0 0,-3.510008 q 0,-0.8329722 -0.3248,-1.2468388 -0.32481,-0.4138667 -0.97442,-0.4138667 -0.78059,0 -1.23113,0.4976878 -0.45053,0.4976877 -0.45053,1.3568539 l 0,3.3161718 -0.96919,0 0,-5.8674764 0.96919,0 0,0.9115545 q 0.34576,-0.5291207 0.81201,-0.7910616 0.4715,-0.261941 1.08444,-0.261941 1.01109,0 1.52973,0.6286583 0.51865,0.6234194 0.51865,1.8388252 z" />
    <path
       id="path4727"
       style="font-style:normal;font-variant:normal;font-weight:normal;font-stretch:normal;font-size:10.72910023px;font-family:'DejaVu Sans';-inkscape-font-specification:'DejaVu Sans';fill:#ffffff"
       d="m 189.39657,7.9830548 0,-3.174724 0.96394,0 0,8.1516012 -0.96394,0 0,-0.880121 q -0.30385,0.523882 -0.77011,0.780584 -0.46101,0.251463 -1.11063,0.251463 -1.06348,0 -1.73405,-0.848689 -0.66533,-0.848688 -0.66533,-2.231736 0,-1.3830483 0.66533,-2.2317369 0.67057,-0.8486886 1.73405,-0.8486886 0.64962,0 1.11063,0.2567021 0.46626,0.2514633 0.77011,0.7753452 z m -3.28474,2.0483782 q 0,1.06348 0.43482,1.671183 0.44006,0.602464 1.20493,0.602464 0.76487,0 1.20493,-0.602464 0.44006,-0.607703 0.44006,-1.671183 0,-1.0634803 -0.44006,-1.6659445 -0.44006,-0.6077029 -1.20493,-0.6077029 -0.76487,0 -1.20493,0.6077029 -0.43482,0.6024642 -0.43482,1.6659445 z" />
    <path
       id="path4729"
       style="font-style:normal;font-variant:normal;font-weight:normal;font-stretch:normal;font-size:10.72910023px;font-family:'DejaVu Sans';-inkscape-font-specification:'DejaVu Sans';fill:#ffffff"
       d="m 195.01259,10.010478 q -1.16826,0 -1.6188,0.267179 -0.45053,0.26718 -0.45053,0.911555 0,0.513404 0.33528,0.817255 0.34052,0.298613 0.92203,0.298613 0.80154,0 1.28351,-0.565792 0.48721,-0.571032 0.48721,-1.514019 l 0,-0.214791 -0.9587,0 z m 1.92264,-0.3981507 0,3.3476047 -0.96394,0 0,-0.890599 q -0.33004,0.53436 -0.82249,0.791062 -0.49245,0.251463 -1.20493,0.251463 -0.90108,0 -1.43544,-0.502927 -0.52912,-0.508165 -0.52912,-1.356853 0,-0.990137 0.66009,-1.4930638 0.66533,-0.5029265 1.98028,-0.5029265 l 1.35161,0 0,-0.094299 q 0,-0.6653299 -0.44006,-1.0268084 -0.43482,-0.3667173 -1.22588,-0.3667173 -0.50293,0 -0.97966,0.1204928 -0.47673,0.1204929 -0.91679,0.3614785 l 0,-0.8905991 q 0.52912,-0.2043139 1.0268,-0.3038515 0.49769,-0.1047764 0.96919,-0.1047764 1.27303,0 1.90169,0.6600912 0.62865,0.6600911 0.62865,2.0012286 z" />
    <path
       id="path4731"
       style="font-style:normal;font-variant:normal;font-weight:normal;font-stretch:normal;font-size:10.72910023px;font-family:'DejaVu Sans';-inkscape-font-specification:'DejaVu Sans';fill:#ffffff"
       d="m 199.87945,5.4265114 0,1.6659442 1.98551,0 0,0.7491511 -1.98551,0 0,3.1852013 q 0,0.717718 0.19384,0.922032 0.19907,0.204314 0.80154,0.204314 l 0.99013,0 0,0.806778 -0.99013,0 q -1.11587,0 -1.54022,-0.413866 -0.42434,-0.419106 -0.42434,-1.519258 l 0,-3.1852013 -0.70724,0 0,-0.7491511 0.70724,0 0,-1.6659442 0.96918,0 z" />
    <path
       id="path4733"
       style="font-style:normal;font-variant:normal;font-weight:normal;font-stretch:normal;font-size:10.72910023px;font-family:'DejaVu Sans';-inkscape-font-specification:'DejaVu Sans';fill:#ffffff"
       d="m 203.13799,7.0924556 0.96394,0 0,5.8674764 -0.96394,0 0,-5.8674764 z m 0,-2.2841248 0.96394,0 0,1.2206447 -0.96394,0 0,-1.2206447 z" />
    <path
       id="path4735"
       style="font-style:normal;font-variant:normal;font-weight:normal;font-stretch:normal;font-size:10.72910023px;font-family:'DejaVu Sans';-inkscape-font-specification:'DejaVu Sans';fill:#ffffff"
       d="m 208.38729,7.7682632 q -0.77535,0 -1.22589,0.607703 -0.45054,0.6024641 -0.45054,1.6554668 0,1.053002 0.4453,1.660705 0.45054,0.602464 1.23113,0.602464 0.7701,0 1.22064,-0.607703 0.45054,-0.607703 0.45054,-1.655466 0,-1.0425251 -0.45054,-1.650228 -0.45054,-0.6129418 -1.22064,-0.6129418 z m 0,-0.8172557 q 1.25731,0 1.97503,0.8172557 0.71772,0.8172557 0.71772,2.2631698 0,1.440675 -0.71772,2.263169 -0.71772,0.817256 -1.97503,0.817256 -1.26256,0 -1.98028,-0.817256 -0.71248,-0.822494 -0.71248,-2.263169 0,-1.4459141 0.71248,-2.2631698 0.71772,-0.8172557 1.98028,-0.8172557 z" />
    <path
       id="path4737"
       style="font-style:normal;font-variant:normal;font-weight:normal;font-stretch:normal;font-size:10.72910023px;font-family:'DejaVu Sans';-inkscape-font-specification:'DejaVu Sans';fill:#ffffff"
       d="m 217.54998,9.418491 0,3.541441 -0.96394,0 0,-3.510008 q 0,-0.8329722 -0.3248,-1.2468388 -0.32481,-0.4138667 -0.97443,-0.4138667 -0.78058,0 -1.23112,0.4976878 -0.45054,0.4976877 -0.45054,1.3568539 l 0,3.3161718 -0.96918,0 0,-5.8674764 0.96918,0 0,0.9115545 q 0.34577,-0.5291207 0.81202,-0.7910616 0.47149,-0.261941 1.08444,-0.261941 1.01109,0 1.52973,0.6286583 0.51864,0.6234194 0.51864,1.8388252 z" />
  </g>
</svg>
